<svg width="187" height="45" viewBox="0 0 187 45" fill="none" xmlns="http://www.w3.org/2000/svg">
<path d="M37.6619 22.4347H34.4744C34.3835 21.9119 34.2159 21.4489 33.9716 21.0455C33.7273 20.6364 33.4233 20.2898 33.0597 20.0057C32.696 19.7216 32.2813 19.5085 31.8153 19.3665C31.3551 19.2188 30.858 19.1449 30.3239 19.1449C29.375 19.1449 28.5341 19.3835 27.8011 19.8608C27.0682 20.3324 26.4943 21.0256 26.0795 21.9403C25.6648 22.8494 25.4574 23.9602 25.4574 25.2727C25.4574 26.608 25.6648 27.733 26.0795 28.6477C26.5 29.5568 27.0739 30.2443 27.8011 30.7102C28.5341 31.1705 29.3722 31.4006 30.3153 31.4006C30.8381 31.4006 31.3267 31.3324 31.7812 31.196C32.2415 31.054 32.6534 30.8466 33.017 30.5739C33.3864 30.3011 33.696 29.9659 33.946 29.5682C34.2017 29.1705 34.3778 28.7159 34.4744 28.2045L37.6619 28.2216C37.5426 29.0511 37.2841 29.8295 36.8864 30.5568C36.4943 31.2841 35.9801 31.9261 35.3438 32.483C34.7074 33.0341 33.9631 33.4659 33.1108 33.7784C32.2585 34.0852 31.3125 34.2386 30.2727 34.2386C28.7386 34.2386 27.3693 33.8835 26.1648 33.1733C24.9602 32.4631 24.0114 31.4375 23.3182 30.0966C22.625 28.7557 22.2784 27.1477 22.2784 25.2727C22.2784 23.392 22.6278 21.7841 23.3267 20.4489C24.0256 19.108 24.9773 18.0824 26.1818 17.3722C27.3864 16.6619 28.75 16.3068 30.2727 16.3068C31.2443 16.3068 32.1477 16.4432 32.983 16.7159C33.8182 16.9886 34.5625 17.3892 35.2159 17.9176C35.8693 18.4403 36.4063 19.0824 36.8267 19.8438C37.2528 20.5994 37.5313 21.4631 37.6619 22.4347ZM40.4212 34V20.9091H43.4126V23.0909H43.549C43.7876 22.3352 44.1967 21.7528 44.7763 21.3438C45.3615 20.929 46.0291 20.7216 46.7791 20.7216C46.9496 20.7216 47.1399 20.7301 47.3501 20.7472C47.5661 20.7585 47.745 20.7784 47.8871 20.8068V23.6449C47.7564 23.5994 47.549 23.5597 47.2649 23.5256C46.9865 23.4858 46.7166 23.4659 46.4553 23.4659C45.8928 23.4659 45.3871 23.5881 44.9382 23.8324C44.495 24.071 44.1456 24.4034 43.8899 24.8295C43.6342 25.2557 43.5064 25.7472 43.5064 26.304V34H40.4212ZM53.4695 34.2642C52.6399 34.2642 51.8928 34.1165 51.228 33.821C50.5689 33.5199 50.0462 33.0767 49.6598 32.4915C49.2791 31.9062 49.0888 31.1847 49.0888 30.3267C49.0888 29.5881 49.2251 28.9773 49.4979 28.4943C49.7706 28.0114 50.1428 27.625 50.6143 27.3352C51.0859 27.0455 51.6172 26.8267 52.2081 26.679C52.8047 26.5256 53.4212 26.4148 54.0575 26.3466C54.8246 26.267 55.4467 26.196 55.924 26.1335C56.4013 26.0653 56.7479 25.9631 56.9638 25.8267C57.1854 25.6847 57.2962 25.4659 57.2962 25.1705V25.1193C57.2962 24.4773 57.1058 23.9801 56.7251 23.6278C56.3445 23.2756 55.7962 23.0994 55.0803 23.0994C54.3246 23.0994 53.7251 23.2642 53.282 23.5938C52.8445 23.9233 52.549 24.3125 52.3956 24.7614L49.5149 24.3523C49.7422 23.5568 50.1172 22.892 50.6399 22.358C51.1626 21.8182 51.8018 21.4148 52.5575 21.1477C53.3132 20.875 54.1484 20.7386 55.0632 20.7386C55.6939 20.7386 56.3217 20.8125 56.9467 20.9602C57.5717 21.108 58.1428 21.3523 58.6598 21.6932C59.1768 22.0284 59.5916 22.4858 59.9041 23.0653C60.2223 23.6449 60.3814 24.3693 60.3814 25.2386V34H57.4155V32.2017H57.3132C57.1257 32.5653 56.8615 32.9062 56.5206 33.2244C56.1854 33.5369 55.7621 33.7898 55.2507 33.983C54.745 34.1705 54.1513 34.2642 53.4695 34.2642ZM54.2706 31.9972C54.8899 31.9972 55.4268 31.875 55.8814 31.6307C56.3359 31.3807 56.6854 31.0511 56.9297 30.642C57.1797 30.233 57.3047 29.7869 57.3047 29.304V27.7614C57.2081 27.8409 57.0433 27.9148 56.8104 27.983C56.5831 28.0511 56.3274 28.1108 56.0433 28.1619C55.7592 28.2131 55.478 28.2585 55.1996 28.2983C54.9212 28.3381 54.6797 28.3722 54.4751 28.4006C54.0149 28.4631 53.603 28.5653 53.2393 28.7074C52.8757 28.8494 52.5888 29.0483 52.3786 29.304C52.1683 29.554 52.0632 29.8778 52.0632 30.2756C52.0632 30.8438 52.2706 31.2727 52.6854 31.5625C53.1001 31.8523 53.6286 31.9972 54.2706 31.9972ZM70.1143 20.9091V23.2955H62.3757V20.9091H70.1143ZM64.3104 34V19.6733C64.3104 18.7926 64.4922 18.0597 64.8558 17.4744C65.2251 16.8892 65.7195 16.4517 66.3388 16.1619C66.9581 15.8722 67.6456 15.7273 68.4013 15.7273C68.9354 15.7273 69.4098 15.7699 69.8246 15.8551C70.2393 15.9403 70.5462 16.017 70.745 16.0852L70.1314 18.4716C70.0007 18.4318 69.8359 18.392 69.6371 18.3523C69.4382 18.3068 69.2166 18.2841 68.9723 18.2841C68.3984 18.2841 67.9922 18.4233 67.7536 18.7017C67.5206 18.9744 67.4041 19.3665 67.4041 19.8778V34H64.3104ZM79.0675 20.9091V23.2955H71.5419V20.9091H79.0675ZM73.3999 17.7727H76.4851V30.0625C76.4851 30.4773 76.5476 30.7955 76.6726 31.017C76.8033 31.233 76.9737 31.3807 77.1839 31.4602C77.3942 31.5398 77.6271 31.5795 77.8828 31.5795C78.076 31.5795 78.2521 31.5653 78.4112 31.5369C78.576 31.5085 78.701 31.483 78.7862 31.4602L79.3061 33.8722C79.1413 33.929 78.9055 33.9915 78.5987 34.0597C78.2976 34.1278 77.9283 34.1676 77.4908 34.179C76.718 34.2017 76.022 34.0852 75.4027 33.8295C74.7834 33.5682 74.2919 33.1648 73.9283 32.6193C73.5703 32.0739 73.3942 31.392 73.3999 30.5739V17.7727Z" fill="#0E0E0E"/>
<path d="M77.048 40.984C76.832 41.08 76.736 40.792 76.928 40.744C82.064 39.688 84.272 34.264 87.872 26.8C90.776 20.776 92.696 18.736 96.368 17.416C97.04 17.176 98.528 16.84 99.176 16.768C98.48 16.696 97.808 16.672 96.752 16.672C93.296 16.672 88.448 17.224 87.488 17.224C87.32 17.224 87.296 17.032 87.464 16.792C88.04 15.808 89.072 14.8 89.552 14.656C89.936 14.488 93.656 14.512 96.728 14.512C99.68 14.512 101.096 14.296 102.008 14.296C102.272 14.296 102.392 14.32 102.392 14.464C102.392 14.632 102.128 15.208 101.696 15.736C101.12 16.408 100.688 16.864 100.4 16.84C99.368 16.792 98.696 16.888 97.928 17.2C95.288 18.28 93.176 20.896 90.56 27.328C86.912 36.256 84.992 39.112 77.048 40.984ZM95.9174 34.168C94.4294 34.168 93.3974 33.304 93.1334 31.864C92.8694 30.376 93.3494 28.792 94.3574 27.136C95.3894 25.528 96.9494 24.112 98.3414 23.248C99.7334 22.336 100.957 21.592 102.421 21.592C103.909 21.592 104.869 22.48 105.133 23.896C105.373 25.144 105.085 26.848 103.885 28.72C102.901 30.208 101.125 31.672 99.9494 32.392C98.7494 33.16 97.3814 34.168 95.9174 34.168ZM98.2454 32.632C98.8214 32.632 99.3494 32.512 99.8774 32.272C100.285 31.888 100.693 31.168 101.077 30.376C101.773 29.008 102.325 26.656 102.133 25.216C101.917 23.752 101.317 22.864 99.9014 22.864C99.4454 22.864 99.2294 22.96 98.8454 23.104C98.3894 23.44 97.8614 24.232 97.3574 25.144C96.6134 26.488 95.9894 28.672 96.1814 30.328C96.4694 31.792 97.1174 32.632 98.2454 32.632ZM107.518 34.168C106.918 34.072 105.742 33.544 105.55 32.464C105.502 31.408 106.63 29.944 107.974 27.784C109.054 26.104 109.918 24.688 109.894 23.968C109.894 23.608 109.654 23.344 109.198 23.2C108.55 23.44 107.518 24.28 106.51 25.456L106.342 25.312C107.302 24.184 108.862 22.72 109.99 22.048C110.518 21.736 110.878 21.664 111.334 21.664C112.174 21.664 112.966 22.984 112.99 23.896C112.99 24.784 111.958 26.512 110.878 28.24C109.894 29.8 109.078 30.928 108.886 31.696C108.862 32.224 109.27 32.536 109.726 32.656C110.95 32.296 113.566 29.416 116.374 25.432C117.214 24.208 117.886 22.96 118.39 22.168C118.774 21.952 119.278 21.784 119.878 21.76C120.694 21.76 121.63 22.12 121.27 23.008C120.598 23.944 119.518 25.504 118.534 27.088C117.382 28.936 116.278 30.784 116.254 31.864C116.278 32.32 116.662 32.632 117.094 32.776C117.862 32.512 119.11 31.288 119.974 30.328L120.118 30.496C119.254 31.408 117.814 32.992 116.278 33.856C116.086 33.952 115.702 34.024 115.342 34.024C114.886 34.024 114.502 33.976 114.31 33.88C113.734 33.496 113.206 32.8 113.206 32.032C113.158 30.856 114.502 28.792 115.99 26.368C113.206 30.16 109.798 34.048 107.518 34.168ZM121.788 34C120.996 34 120.084 33.664 120.396 32.776C121.812 30.832 124.836 26.272 124.812 24.28C124.788 23.776 124.62 23.464 124.164 23.344C123.492 23.56 122.532 24.328 121.524 25.504L121.356 25.36C122.34 24.232 123.876 22.84 125.028 22.12C125.46 21.808 125.892 21.712 126.348 21.712C127.188 21.736 127.932 23.032 127.98 24.04C128.004 24.784 127.548 25.84 126.948 26.992C128.844 24.424 130.068 22.816 131.244 22.168C131.58 21.952 131.892 21.832 132.276 21.784C133.476 21.616 134.676 21.784 134.7 22.288C134.676 23.056 132.972 24.832 132.42 24.856C131.604 24.856 131.1 24.448 129.876 24.472C129.612 24.544 129.348 24.664 129.084 24.856C128.148 25.456 127.284 26.776 126.084 28.744C125.292 30.04 124.356 31.672 123.204 33.64C122.868 33.832 122.364 33.976 121.788 34ZM135.346 33.64C134.986 33.832 134.53 33.976 133.954 34C133.138 34 132.202 33.664 132.538 32.776C133.954 30.832 136.978 26.272 136.954 24.28C136.93 23.776 136.762 23.464 136.282 23.344C135.634 23.56 134.77 24.28 133.762 25.456L133.594 25.336C134.578 24.184 135.946 22.888 137.074 22.048C137.458 21.736 137.794 21.568 138.178 21.568C138.994 21.568 140.098 23.032 140.122 24.04C140.17 25.24 139.018 27.232 137.77 29.344C140.554 25.552 144.178 21.688 146.458 21.544C148.258 22.168 148.522 23.992 145.906 27.952C144.898 29.512 143.938 30.952 143.986 31.84C144.01 32.248 144.202 32.608 144.682 32.752C145.45 32.488 146.698 31.288 147.562 30.328L147.706 30.496C146.842 31.408 145.402 33.04 143.842 33.88C143.674 33.976 143.29 34.024 142.834 34.024C142.402 34.024 142.114 33.976 141.946 33.88C141.37 33.544 140.818 32.8 140.818 32.008C140.794 31.024 142.066 29.032 143.002 27.592C145.09 24.376 144.994 23.584 144.178 23.056C142.906 23.536 140.17 26.272 137.434 30.256C136.618 31.48 135.85 32.8 135.346 33.64ZM150.119 34.12C149.903 34.12 149.687 34.072 149.591 34.024C148.247 33.184 148.463 30.496 149.567 28.048C150.599 25.744 152.927 23.92 154.751 22.936C156.191 22.096 157.367 21.76 158.111 21.76C159.407 21.76 160.463 22.24 161.207 23.608C161.759 23.272 162.911 22.456 163.631 22.024C163.919 21.856 163.871 22.12 163.871 22.12C162.911 23.32 160.991 25.984 159.743 28.312C158.975 29.704 158.447 31 158.519 31.744C158.567 32.2 158.903 32.608 159.383 32.752C160.031 32.536 161.087 31.504 162.047 30.472L162.191 30.64C161.279 31.624 160.151 32.968 158.519 33.88C158.399 33.952 158.015 33.976 157.607 33.976C157.223 33.976 156.791 33.928 156.671 33.88C155.927 33.328 155.567 32.728 155.519 32.008C155.399 30.544 156.791 28.792 157.679 27.496C155.831 29.512 153.671 31.648 152.663 32.536C151.895 33.208 151.367 33.616 150.839 33.952C150.647 34.048 150.359 34.12 150.119 34.12ZM152.159 31.888C152.375 32.008 152.831 31.816 153.287 31.456C154.727 30.376 157.175 27.832 159.143 25.456C158.159 23.488 156.983 22.744 156.023 22.744C155.591 22.744 155.279 22.816 154.943 23.056C154.055 23.656 153.023 25.096 152.423 26.992C151.727 29.08 151.559 31.288 152.159 31.888ZM164.842 34.024C164.386 34.024 164.098 33.976 163.93 33.88C163.354 33.52 162.754 32.728 162.73 31.96C162.73 30.976 163.666 29.2 164.482 27.712C166.258 24.472 168.13 21.424 169.426 19.552C170.626 17.8 172.93 16.096 176.026 14.656C178.33 13.6 180.394 12.952 183.154 12.952C184.162 12.952 185.314 13 185.89 13.072C186.082 13.096 186.178 13.192 186.178 13.36C186.178 14.176 184.546 15.592 183.946 15.592C182.41 15.592 179.746 14.464 177.946 14.464C177.322 14.464 176.722 14.512 176.146 14.8C175.306 15.232 174.13 16.648 172.258 19.672C170.578 22.432 168.874 25.288 167.362 28.048C166.498 29.632 165.826 31.024 165.874 31.912C165.898 32.32 166.114 32.656 166.594 32.8C167.362 32.536 168.586 31.288 169.45 30.328L169.594 30.496C168.73 31.408 167.314 33.04 165.754 33.88C165.586 33.952 165.298 34.024 164.842 34.024Z" fill="black"/>
<path d="M14.5 0H17.5V10H14.5V0Z" fill="#1D9D5C"/>
<path d="M10 14.5L10 17.5L-1.31134e-07 17.5L0 14.5L10 14.5Z" fill="#1D9D5C"/>
</svg>
